<?xml version="1.0" encoding="utf-8"?>

<!DOCTYPE svg PUBLIC "-//W3C//DTD SVG 1.1//EN" "http://www.w3.org/Graphics/SVG/1.1/DTD/svg11.dtd">
<svg version="1.1" id="Layer_1" xmlns="http://www.w3.org/2000/svg" xmlns:xlink="http://www.w3.org/1999/xlink" x="0px" y="0px"
	 viewBox="0 0 2369.819 1637.175" enable-background="new 0 0 2369.819 1637.175" xml:space="preserve">
<g>
	<path d="M1566.285,386.166c-41.793,47.839-76.186,94.435-160.641,128.73c-21.305,8.651-31.848,17.396-25.339,45.566
		c85.722,370.981,82.764,441.055,114.238,517.704c4.731,11.522-4.96,14.122-11.959,18.313
		c-27.659,16.562-58.518,24.405-89.647,29.532c-13.196,2.173-17.591,4.736-17.542,18.334c0.448,125.705,0.322,251.412,0.209,377.118
		c-0.023,25.25,18.004,34.782,37.494,38.711c14.165,2.855,25.75,10.615,39.353,14.261c13.215,3.542,16.71,16.899,14.383,30.496
		c-3.684,21.523-16.227,9.927-147.047,13.638c-18.24,0.517-23.384-9.235-23.946-23.738c-3.135-80.964-14.127-161.295-18.529-242.241
		c-3.485-64.078-18.528-127.464-26.303-191.416c-3.466-28.509-24.213-12.395-47.186-17.555c-20.01-4.495-26.363,9.992-27.165,22.939
		c-4.587,74.057-22.959,146.339-24.752,220.952c-1.646,68.488-10.494,136.816-16.636,205.173
		c-1.255,13.97-8.741,20.607-24.49,20.182c-130.258-3.519-143.157,7.843-146.462-14.356c-4.706-31.602,25.643-33.521,36.16-37.915
		c55.189-23.06,55.164-23.119,55.164-82.706c0-110.469-0.139-220.939,0.159-331.407c0.122-45.138-22.854-8.945-105.505-54.244
		c-12.467-6.833-16.377-13.062-12.143-28.648c39.474-145.331,77.409-291.079,116.452-436.528c5.721-21.312,1.941-33.5-19.831-43.279
		c-203.327-91.324-242.362-148.694-290.862-174.452c-15.296,22.299-19.96,48.661-31.492,71.89
		C632.214,642.778,581.064,641.36,581.118,686.531c0.306,259.031,0.556,518.063-0.135,777.092
		c-0.101,37.753,28.54,53.305,50.654,73.822c10.991,10.197,27.807,16.283,23.192,34.573c-5.233,20.742-23.683,17.942-39.773,17.626
		c-19.966-0.391-40.64,2.411-59.737-1.857c-31.247-6.984-70.217-59.6-70.872-93.397c-1.68-86.584-23.381-170.889-28.37-256.984
		c-2.818-48.633-9.406-96.456-19.721-147.495c-19.019,17.387-17.465,38.787-22.208,57.499
		c-102.945,406.128-87.219,377.234-129.041,426.804c-16.74,19.842-29.513,15.124-97.656,15.45c-9.7,0.046-20.51,0.708-22.52-11.701
		c-8.368-51.658,41.482,2.132,80.675-130.782c18.622-63.151,27.975-127.447,36.482-191.937
		c32.128-243.553,39.286-300.331,36.853-535.593c-0.182-17.643-4.833-30.024-17.745-41.965
		C195.353,579.806,75.31,446.592,29.364,309.372c-4.686-13.996-2.535-26.582,5.289-37.514c9.994-13.964,18.435-21.555,33.672-0.553
		C268.161,546.745,308.48,563.03,349.982,560.832c7.283-0.386,19.004,5.126,19.608-9.151c0.449-10.622,3.215-20.875-11-28.332
		c-45.02-23.617-77.76-59.893-87.531-110.265c-19.4-100.019,17.266-183.726,138.328-188.762c26.786-1.114,53.105-1.717,80.348,9.555
		c50.035,20.703,80.078,54.717,85.264,107.52c7.965,81.101-9.714,137.809-87.571,185.508c-12.647,7.748-16.293,15.953-14.64,29.265
		c2.216,17.847,15.827,9.452,24.403,10.214c14.933,1.328,29.412,0.378,43.821-7.385c79.29-42.72,128.075-110.696,162.928-191.233
		c6.047-13.973-4.789-17.059-10.406-22.633c-28.771-28.548-58.855-55.686-69.276-97.537c-13.249-53.213,16.593-74.596,47.403-44.695
		c111.075,107.798,79.996,104.918,310.704,218.854c29.506,14.572,13.348,4.433,140.868,8.26c12.998,0.39,20.391-4.598,22.714-15.595
		c2.261-10.705,4.477-22.595-8.458-30.133c-89.811-52.336-122.279-142.318-94.192-243.376c15.318-55.116,46.513-92.071,97.854-110.3
		c183.851-65.278,274.869,156.432,205.674,284.052c-12.274,22.638-32.984,39.718-53.027,54.966
		c-12.811,9.746-9.746,19.466-8.776,29.325c1.283,13.045,13.336,6.973,20.711,7.612c79.442,6.88,142.214-23.371,199.41-78.51
		c75.727-73.003,173.435-190.172,179.088-100.611c2.754,43.628-25.406,70.04-55.714,92.466
		c-20.528,15.19-26.793,23.495-14.788,51.169c41.366,95.358,100.908,175.846,178.591,243.84
		c20.853,18.253,43.074,33.496,72.514,31.681c7.402-0.456,19.306,4.579,18.984-9.731c-0.208-9.245,5.327-20.024-9.17-26.32
		c-52.391-22.754-72.855-69.312-85.919-120.405c-16.091-62.931,38.242-148.332,95.465-168.833
		c64.252-23.019,134.299,6.295,165.991,69.541c37.309,74.454,25.759,140.697-33.612,201.253
		c-12.511,12.761-32.208,21.439-29.85,45.274c1.027,10.384,2.96,14.724,14.444,15.404c30.5,1.805,54.339-11.567,76.054-30.497
		c189.492-165.193,163.34-281.859,227.204-301.104c11.08-3.339,24.639-13.57,33.229,0.333c15.492,25.076-8.182,56.022-15.191,60.651
		c-30.804,20.345-36.355,55.098-49.332,85.11c-40.295,93.183-79.986,188.034-160.185,254
		c-39.862,32.788-38.354,66.574-26.766,105.895c27.882,94.606,38.658,193.401,71.38,286.802
		c5.484,15.654-0.907,27.231-19.206,29.906c-23.986,3.505-47.772,9.244-71.858,10.878c-14.729,0.999-16.716,6.801-16.731,19.133
		c-0.125,98.563,26.797,264.174,22.505,312.57c-5.534,62.397,76.767,52.586,62.387,98.364c-3.144,10.009-11.45,17.53-23.91,16.197
		c-21.4-2.289-42.886,3.563-64.483-4.563c-65.693-24.716-45.002-82.076-75.707-318.293c-4.367-33.594-4.287-67.761-6.424-101.656
		c-0.38-6.021,2.317-14.462-8.066-14.952c-10.693-0.504-8.391,7.958-8.912,14.119c-5.783,68.378-8.758,137.139-18.109,205.023
		c-13.47,97.779,2.098,214.205-93.351,214.644c-11.428,0.052-22.869-0.355-34.28,0.077c-13.41,0.508-22.016-6.177-25.165-18.235
		c-5.163-19.768,6.298-29.313,24.927-38.754c56.814-28.793,33.323-84.436,54.784-350.541c2.009-24.912-4.245-34.092-31.625-33.572
		c-30.553,0.58-61.382-5.961-91.85-10.895c-19.826-3.211-15.929-19.619-11.97-31.528c27.666-83.22,40.504-169.919,61.185-254.755
		c4.752-19.493,31.643-104.493,7.77-118.27c-71.083-41.019-107.11-110.635-145.397-178.439
		C1613.711,506.666,1594.004,448.12,1566.285,386.166z"/>
</g>
</svg>
